<svg xmlns="http://www.w3.org/2000/svg" id="a" width="512" height="512" viewBox="0 0 298.24155 298.24154" version="1.1"
     style="color:hsl(0 0% 13%);fill:hsl(17 96% 52%); border-radius:50px;"
     class="fill-brand-orange text-background">
    <defs id="defs1"/>
    <rect id="rect2" width="298.24155" height="298.24155" x="0" y="0"/>
    <polygon
            points="242.424,90.909 242.424,121.212 212.121,121.212 212.121,151.515 181.818,151.515 181.818,121.212 151.515,121.212 151.515,90.909 121.212,90.909 121.212,212.121 90.909,212.121 90.909,242.424 181.818,242.424 181.818,212.121 151.515,212.121 151.515,181.818 181.818,181.818 181.818,212.121 212.121,212.121 212.121,181.818 242.424,181.818 242.424,212.121 212.121,212.121 212.121,242.424 303.03,242.424 303.03,212.121 272.727,212.121 272.727,90.909 "
            fill="currentColor" stroke-width="0" id="polygon1" transform="translate(-47.848728,-17.545727)"/>
</svg>
